<mxfile host="Electron" modified="2024-06-18T16:14:58.487Z" agent="Mozilla/5.0 (Macintosh; Intel Mac OS X 10_15_7) AppleWebKit/537.36 (KHTML, like Gecko) draw.io/21.1.2 Chrome/106.0.5249.199 Electron/21.4.3 Safari/537.36" etag="RfyWLtNu8vPypEB9uJMF" version="21.1.2" type="device">
  <diagram name="Page-1" id="r6UnFRfl_-iHqwlkeRBK">
    <mxGraphModel dx="760" dy="550" grid="1" gridSize="10" guides="1" tooltips="1" connect="1" arrows="1" fold="1" page="1" pageScale="1" pageWidth="1200" pageHeight="900" math="1" shadow="0">
      <root>
        <mxCell id="0" />
        <mxCell id="1" parent="0" />
        <mxCell id="pGdtRP4Wak_l-UHCPVVS-14" value="" style="rounded=0;whiteSpace=wrap;html=1;strokeColor=#000000;fontSize=25;" vertex="1" parent="1">
          <mxGeometry x="430" y="320" width="280" height="280" as="geometry" />
        </mxCell>
        <mxCell id="pGdtRP4Wak_l-UHCPVVS-2" value="$$\mathbf{y}_{4,4}$$" style="whiteSpace=wrap;html=1;aspect=fixed;fillColor=#dae8fc;strokeColor=#000000;fontSize=25;" vertex="1" parent="1">
          <mxGeometry x="630" y="520" width="80" height="80" as="geometry" />
        </mxCell>
        <mxCell id="pGdtRP4Wak_l-UHCPVVS-3" value="$$\mathbf{y}_{2,2}$$" style="whiteSpace=wrap;html=1;aspect=fixed;fillColor=#dae8fc;strokeColor=#000000;fontSize=25;" vertex="1" parent="1">
          <mxGeometry x="510" y="400" width="50" height="50" as="geometry" />
        </mxCell>
        <mxCell id="pGdtRP4Wak_l-UHCPVVS-4" value="$$\mathbf{y}_{3,3}$$" style="whiteSpace=wrap;html=1;aspect=fixed;fillColor=#dae8fc;strokeColor=#000000;fontSize=25;" vertex="1" parent="1">
          <mxGeometry x="560" y="450" width="70" height="70" as="geometry" />
        </mxCell>
        <mxCell id="pGdtRP4Wak_l-UHCPVVS-6" value="$$\mathbf{y}_{1,2}$$" style="rounded=0;whiteSpace=wrap;html=1;fillColor=#fff2cc;strokeColor=#000000;fontSize=25;" vertex="1" parent="1">
          <mxGeometry x="510" y="320" width="50" height="80" as="geometry" />
        </mxCell>
        <mxCell id="pGdtRP4Wak_l-UHCPVVS-7" value="$$\mathbf{y}_{1,1}$$" style="whiteSpace=wrap;html=1;aspect=fixed;fillColor=#dae8fc;strokeColor=#000000;fontSize=25;" vertex="1" parent="1">
          <mxGeometry x="430" y="320" width="80" height="80" as="geometry" />
        </mxCell>
        <mxCell id="pGdtRP4Wak_l-UHCPVVS-8" value="$$\mathbf{y}_{2,3}$$" style="rounded=0;whiteSpace=wrap;html=1;fillColor=#fff2cc;strokeColor=#000000;fontSize=25;" vertex="1" parent="1">
          <mxGeometry x="560" y="400" width="70" height="50" as="geometry" />
        </mxCell>
        <mxCell id="pGdtRP4Wak_l-UHCPVVS-9" value="$$\mathbf{y}_{1,3}$$" style="rounded=0;whiteSpace=wrap;html=1;fillColor=#fff2cc;strokeColor=#000000;fontSize=25;" vertex="1" parent="1">
          <mxGeometry x="560" y="320" width="70" height="80" as="geometry" />
        </mxCell>
        <mxCell id="pGdtRP4Wak_l-UHCPVVS-10" value="$$\mathbf{y}_{1,4}$$" style="rounded=0;whiteSpace=wrap;html=1;fillColor=#fff2cc;strokeColor=#000000;fontSize=25;" vertex="1" parent="1">
          <mxGeometry x="630" y="320" width="80" height="80" as="geometry" />
        </mxCell>
        <mxCell id="pGdtRP4Wak_l-UHCPVVS-11" value="$$\mathbf{y}_{2,4}$$" style="rounded=0;whiteSpace=wrap;html=1;fillColor=#fff2cc;strokeColor=#000000;fontSize=25;" vertex="1" parent="1">
          <mxGeometry x="630" y="400" width="80" height="50" as="geometry" />
        </mxCell>
        <mxCell id="pGdtRP4Wak_l-UHCPVVS-13" value="$$\mathbf{y}_{3,4}$$" style="rounded=0;whiteSpace=wrap;html=1;fillColor=#fff2cc;strokeColor=#000000;fontSize=25;" vertex="1" parent="1">
          <mxGeometry x="630" y="450" width="80" height="70" as="geometry" />
        </mxCell>
        <mxCell id="pGdtRP4Wak_l-UHCPVVS-22" value="" style="rounded=0;whiteSpace=wrap;html=1;strokeColor=#000000;fontSize=25;" vertex="1" parent="1">
          <mxGeometry x="20" y="320" width="280" height="280" as="geometry" />
        </mxCell>
        <mxCell id="pGdtRP4Wak_l-UHCPVVS-27" value="$$\mathbf{y}$$" style="whiteSpace=wrap;html=1;aspect=fixed;fillColor=#d5e8d4;strokeColor=#82b366;fontSize=66;" vertex="1" parent="1">
          <mxGeometry x="20" y="320" width="280" height="280" as="geometry" />
        </mxCell>
        <mxCell id="pGdtRP4Wak_l-UHCPVVS-33" value="" style="shape=flexArrow;endArrow=classic;html=1;rounded=0;" edge="1" parent="1">
          <mxGeometry width="50" height="50" relative="1" as="geometry">
            <mxPoint x="320" y="470" as="sourcePoint" />
            <mxPoint x="400" y="470" as="targetPoint" />
          </mxGeometry>
        </mxCell>
        <mxCell id="pGdtRP4Wak_l-UHCPVVS-34" value="1. Step" style="text;html=1;strokeColor=none;fillColor=none;align=center;verticalAlign=middle;whiteSpace=wrap;rounded=0;fontSize=18;" vertex="1" parent="1">
          <mxGeometry x="330" y="420" width="60" height="30" as="geometry" />
        </mxCell>
        <mxCell id="pGdtRP4Wak_l-UHCPVVS-35" value="" style="rounded=0;whiteSpace=wrap;html=1;strokeColor=#000000;fontSize=25;" vertex="1" parent="1">
          <mxGeometry x="750" y="40" width="280" height="280" as="geometry" />
        </mxCell>
        <mxCell id="pGdtRP4Wak_l-UHCPVVS-36" value="$$\mathbf{y}_{4,4}$$" style="whiteSpace=wrap;html=1;aspect=fixed;fillColor=#dae8fc;strokeColor=#000000;fontSize=25;" vertex="1" parent="1">
          <mxGeometry x="950" y="240" width="80" height="80" as="geometry" />
        </mxCell>
        <mxCell id="pGdtRP4Wak_l-UHCPVVS-37" value="$$\mathbf{y}_{2,2}$$" style="whiteSpace=wrap;html=1;aspect=fixed;fillColor=#dae8fc;strokeColor=#000000;fontSize=25;" vertex="1" parent="1">
          <mxGeometry x="830" y="120" width="50" height="50" as="geometry" />
        </mxCell>
        <mxCell id="pGdtRP4Wak_l-UHCPVVS-38" value="$$\mathbf{y}_{3,3}$$" style="whiteSpace=wrap;html=1;aspect=fixed;fillColor=#dae8fc;strokeColor=#000000;fontSize=25;" vertex="1" parent="1">
          <mxGeometry x="880" y="170" width="70" height="70" as="geometry" />
        </mxCell>
        <mxCell id="pGdtRP4Wak_l-UHCPVVS-40" value="$$\mathbf{y}_{1,1}$$" style="whiteSpace=wrap;html=1;aspect=fixed;fillColor=#dae8fc;strokeColor=#000000;fontSize=25;" vertex="1" parent="1">
          <mxGeometry x="750" y="40" width="80" height="80" as="geometry" />
        </mxCell>
        <mxCell id="pGdtRP4Wak_l-UHCPVVS-46" value="" style="rounded=0;whiteSpace=wrap;html=1;strokeColor=#000000;fontSize=25;" vertex="1" parent="1">
          <mxGeometry x="750" y="600" width="280" height="280" as="geometry" />
        </mxCell>
        <mxCell id="pGdtRP4Wak_l-UHCPVVS-50" value="$$\mathbf{y}_{1,2}$$" style="rounded=0;whiteSpace=wrap;html=1;fillColor=#fff2cc;strokeColor=#000000;fontSize=25;" vertex="1" parent="1">
          <mxGeometry x="830" y="600" width="50" height="80" as="geometry" />
        </mxCell>
        <mxCell id="pGdtRP4Wak_l-UHCPVVS-52" value="$$\mathbf{y}_{2,3}$$" style="rounded=0;whiteSpace=wrap;html=1;fillColor=#fff2cc;strokeColor=#000000;fontSize=25;" vertex="1" parent="1">
          <mxGeometry x="880" y="680" width="70" height="50" as="geometry" />
        </mxCell>
        <mxCell id="pGdtRP4Wak_l-UHCPVVS-53" value="$$\mathbf{y}_{1,3}$$" style="rounded=0;whiteSpace=wrap;html=1;fillColor=#fff2cc;strokeColor=#000000;fontSize=25;" vertex="1" parent="1">
          <mxGeometry x="880" y="600" width="70" height="80" as="geometry" />
        </mxCell>
        <mxCell id="pGdtRP4Wak_l-UHCPVVS-54" value="$$\mathbf{y}_{1,4}$$" style="rounded=0;whiteSpace=wrap;html=1;fillColor=#fff2cc;strokeColor=#000000;fontSize=25;" vertex="1" parent="1">
          <mxGeometry x="950" y="600" width="80" height="80" as="geometry" />
        </mxCell>
        <mxCell id="pGdtRP4Wak_l-UHCPVVS-55" value="$$\mathbf{y}_{2,4}$$" style="rounded=0;whiteSpace=wrap;html=1;fillColor=#fff2cc;strokeColor=#000000;fontSize=25;" vertex="1" parent="1">
          <mxGeometry x="950" y="680" width="80" height="50" as="geometry" />
        </mxCell>
        <mxCell id="pGdtRP4Wak_l-UHCPVVS-56" value="$$\mathbf{y}_{3,4}$$" style="rounded=0;whiteSpace=wrap;html=1;fillColor=#fff2cc;strokeColor=#000000;fontSize=25;" vertex="1" parent="1">
          <mxGeometry x="950" y="730" width="80" height="70" as="geometry" />
        </mxCell>
        <mxCell id="pGdtRP4Wak_l-UHCPVVS-57" value="" style="shape=flexArrow;endArrow=classic;html=1;rounded=0;" edge="1" parent="1">
          <mxGeometry width="50" height="50" relative="1" as="geometry">
            <mxPoint x="600" y="280" as="sourcePoint" />
            <mxPoint x="680" y="240" as="targetPoint" />
          </mxGeometry>
        </mxCell>
        <mxCell id="pGdtRP4Wak_l-UHCPVVS-58" value="" style="shape=flexArrow;endArrow=classic;html=1;rounded=0;" edge="1" parent="1">
          <mxGeometry width="50" height="50" relative="1" as="geometry">
            <mxPoint x="600" y="640" as="sourcePoint" />
            <mxPoint x="680" y="680" as="targetPoint" />
          </mxGeometry>
        </mxCell>
        <mxCell id="pGdtRP4Wak_l-UHCPVVS-59" value="2. Step (a)" style="text;html=1;strokeColor=none;fillColor=none;align=center;verticalAlign=middle;whiteSpace=wrap;rounded=0;fontSize=18;rotation=0;" vertex="1" parent="1">
          <mxGeometry x="580" y="220" width="60" height="30" as="geometry" />
        </mxCell>
        <mxCell id="pGdtRP4Wak_l-UHCPVVS-60" value="2. Step (b)" style="text;html=1;strokeColor=none;fillColor=none;align=center;verticalAlign=middle;whiteSpace=wrap;rounded=0;fontSize=18;rotation=0;" vertex="1" parent="1">
          <mxGeometry x="580" y="670" width="60" height="30" as="geometry" />
        </mxCell>
        <mxCell id="pGdtRP4Wak_l-UHCPVVS-61" value="" style="shape=flexArrow;endArrow=classic;html=1;rounded=0;" edge="1" parent="1">
          <mxGeometry width="50" height="50" relative="1" as="geometry">
            <mxPoint x="1060" y="740" as="sourcePoint" />
            <mxPoint x="1110" y="740.37" as="targetPoint" />
          </mxGeometry>
        </mxCell>
        <mxCell id="pGdtRP4Wak_l-UHCPVVS-62" value="" style="shape=flexArrow;endArrow=classic;html=1;rounded=0;" edge="1" parent="1">
          <mxGeometry width="50" height="50" relative="1" as="geometry">
            <mxPoint x="1060" y="180" as="sourcePoint" />
            <mxPoint x="1110" y="180.37" as="targetPoint" />
          </mxGeometry>
        </mxCell>
        <mxCell id="pGdtRP4Wak_l-UHCPVVS-63" value="$$\hat{\alpha}$$" style="text;html=1;strokeColor=none;fillColor=none;align=center;verticalAlign=middle;whiteSpace=wrap;rounded=0;fontSize=24;rotation=0;" vertex="1" parent="1">
          <mxGeometry x="1120" y="165" width="40" height="30" as="geometry" />
        </mxCell>
        <mxCell id="pGdtRP4Wak_l-UHCPVVS-64" value="$$\hat{\beta}$$" style="text;html=1;strokeColor=none;fillColor=none;align=center;verticalAlign=middle;whiteSpace=wrap;rounded=0;fontSize=24;rotation=0;" vertex="1" parent="1">
          <mxGeometry x="1120" y="725" width="40" height="30" as="geometry" />
        </mxCell>
      </root>
    </mxGraphModel>
  </diagram>
</mxfile>
